<svg width="78" height="22" viewBox="0 0 78 22" fill="none" xmlns="http://www.w3.org/2000/svg">
<path d="M10.9307 20.7244C11.6937 20.4951 12.4041 20.1177 13.0212 19.6138C13.8797 18.9116 14.502 18.0196 14.8691 17.0446C14.9904 16.7225 15.0278 16.3748 14.9776 16.0343C14.9274 15.6938 14.7913 15.3717 14.5821 15.0984C14.373 14.825 14.0976 14.6094 13.7821 14.472C13.4666 14.3345 13.1212 14.2796 12.7786 14.3126C13.0722 14.2456 13.3531 14.1115 13.602 13.9089C14.4701 13.2019 14.5371 11.5918 13.8302 10.7237C13.2242 9.97751 12.4495 9.38608 11.5699 8.9982C10.6904 8.61032 9.73126 8.43709 8.77161 8.4928L10.878 3.66239C10.9979 3.38788 11.062 3.09225 11.0666 2.79272C11.0711 2.49319 11.016 2.19576 10.9045 1.91773C10.793 1.63971 10.6272 1.38666 10.4169 1.17332C10.2066 0.95998 9.95599 0.790618 9.6796 0.675096C9.22061 0.477806 8.70733 0.446173 8.22759 0.585611C7.74785 0.72505 7.33149 1.02689 7.04976 1.43947C5.46835 3.80441 2.55925 8.60131 2.37893 12.1312C2.12839 16.9983 2.37893 20.7244 2.37893 20.7244" stroke="#FF850A" stroke-linecap="round" stroke-linejoin="round"/>
<path d="M8.06525 13.2743C7.82527 13.4712 7.63373 13.7206 7.50542 14.0033C7.37711 14.286 7.31546 14.5944 7.32522 14.9047C7.33498 15.2149 7.4159 15.5188 7.56172 15.7929C7.70754 16.067 7.91438 16.3039 8.16627 16.4853C8.41816 16.6668 8.70837 16.7879 9.0145 16.8395C9.32064 16.891 9.63452 16.8715 9.93193 16.7825C10.2293 16.6935 10.5023 16.5373 10.7298 16.3261C10.9573 16.1149 11.1332 15.8542 11.244 15.5642C11.3619 15.2514 11.5553 14.9726 11.807 14.7526C12.0587 14.5327 12.3608 14.3784 12.6866 14.3035C12.3538 14.3358 12.0182 14.2852 11.7097 14.1563C11.4012 14.0274 11.1294 13.8241 10.9185 13.5647C10.7503 13.3584 10.5432 13.1872 10.3089 13.0609C10.0745 12.9346 9.81764 12.8558 9.55283 12.8288C9.28803 12.8018 9.0205 12.8273 8.76553 12.9037C8.51056 12.9801 8.27155 13.1061 8.06525 13.2743Z" stroke="#FF850A" stroke-linecap="round" stroke-linejoin="round"/>
<path d="M8.78675 8.49639C8.37823 8.54426 7.408 8.72458 6.79203 9.0597M2.28875 13.847C0.860535 10.6539 0.924366 5.40856 1.07597 2.69255C1.10924 2.19456 1.31439 1.72357 1.65638 1.36004C1.99837 0.996517 2.45596 0.763015 2.951 0.699427C3.24767 0.658006 3.54961 0.676026 3.83924 0.752436C4.12887 0.828847 4.40041 0.962121 4.63803 1.1445C4.87566 1.32687 5.07462 1.55471 5.22333 1.81472C5.37204 2.07474 5.46753 2.36175 5.50424 2.65904V3.93406" stroke="#FF850A" stroke-linecap="round" stroke-linejoin="round"/>
<path d="M25.366 10.4406C25.814 10.5206 26.194 10.7566 26.506 11.1486C26.818 11.5406 26.974 11.9846 26.974 12.4806C26.974 12.9046 26.862 13.2886 26.638 13.6326C26.422 13.9686 26.106 14.2366 25.69 14.4366C25.274 14.6286 24.79 14.7246 24.238 14.7246H20.902V6.38461H24.082C24.65 6.38461 25.138 6.48061 25.546 6.67261C25.954 6.86461 26.262 7.12461 26.47 7.45261C26.678 7.77261 26.782 8.13261 26.782 8.53261C26.782 9.01261 26.654 9.41261 26.398 9.73261C26.142 10.0526 25.798 10.2886 25.366 10.4406ZM22.27 9.88861H23.962C24.41 9.88861 24.758 9.78861 25.006 9.58861C25.262 9.38061 25.39 9.08461 25.39 8.70061C25.39 8.32461 25.262 8.03261 25.006 7.82461C24.758 7.60861 24.41 7.50061 23.962 7.50061H22.27V9.88861ZM24.118 13.6086C24.582 13.6086 24.946 13.4966 25.21 13.2726C25.474 13.0486 25.606 12.7366 25.606 12.3366C25.606 11.9286 25.466 11.6046 25.186 11.3646C24.906 11.1246 24.534 11.0046 24.07 11.0046H22.27V13.6086H24.118ZM34.5205 11.2566C34.5205 11.5046 34.5045 11.7286 34.4725 11.9286H29.4205C29.4605 12.4566 29.6565 12.8806 30.0085 13.2006C30.3605 13.5206 30.7925 13.6806 31.3045 13.6806C32.0405 13.6806 32.5605 13.3726 32.8645 12.7566H34.3405C34.1405 13.3646 33.7765 13.8646 33.2485 14.2566C32.7285 14.6406 32.0805 14.8326 31.3045 14.8326C30.6725 14.8326 30.1045 14.6926 29.6005 14.4126C29.1045 14.1246 28.7125 13.7246 28.4245 13.2126C28.1445 12.6926 28.0045 12.0926 28.0045 11.4126C28.0045 10.7326 28.1405 10.1366 28.4125 9.62461C28.6925 9.10461 29.0805 8.70461 29.5765 8.42461C30.0805 8.14461 30.6565 8.00461 31.3045 8.00461C31.9285 8.00461 32.4845 8.14061 32.9725 8.41261C33.4605 8.68461 33.8405 9.06861 34.1125 9.56461C34.3845 10.0526 34.5205 10.6166 34.5205 11.2566ZM33.0925 10.8246C33.0845 10.3206 32.9045 9.91661 32.5525 9.61261C32.2005 9.30861 31.7645 9.15661 31.2445 9.15661C30.7725 9.15661 30.3685 9.30861 30.0325 9.61261C29.6965 9.90861 29.4965 10.3126 29.4325 10.8246H33.0925ZM38.2668 14.8326C37.7468 14.8326 37.2788 14.7406 36.8628 14.5566C36.4548 14.3646 36.1308 14.1086 35.8908 13.7886C35.6508 13.4606 35.5228 13.0966 35.5068 12.6966H36.9228C36.9468 12.9766 37.0788 13.2126 37.3188 13.4046C37.5668 13.5886 37.8748 13.6806 38.2428 13.6806C38.6268 13.6806 38.9228 13.6086 39.1308 13.4646C39.3468 13.3126 39.4548 13.1206 39.4548 12.8886C39.4548 12.6406 39.3348 12.4566 39.0948 12.3366C38.8628 12.2166 38.4908 12.0846 37.9788 11.9406C37.4828 11.8046 37.0788 11.6726 36.7668 11.5446C36.4548 11.4166 36.1828 11.2206 35.9508 10.9566C35.7268 10.6926 35.6148 10.3446 35.6148 9.91261C35.6148 9.56061 35.7188 9.24061 35.9268 8.95261C36.1348 8.65661 36.4308 8.42461 36.8148 8.25661C37.2068 8.08861 37.6548 8.00461 38.1588 8.00461C38.9108 8.00461 39.5148 8.19661 39.9708 8.58061C40.4348 8.95661 40.6828 9.47261 40.7148 10.1286H39.3468C39.3228 9.83261 39.2028 9.59661 38.9868 9.42061C38.7708 9.24461 38.4788 9.15661 38.1108 9.15661C37.7508 9.15661 37.4748 9.22461 37.2828 9.36061C37.0908 9.49661 36.9948 9.67661 36.9948 9.90061C36.9948 10.0766 37.0588 10.2246 37.1868 10.3446C37.3148 10.4646 37.4708 10.5606 37.6548 10.6326C37.8388 10.6966 38.1108 10.7806 38.4708 10.8846C38.9508 11.0126 39.3428 11.1446 39.6468 11.2806C39.9588 11.4086 40.2268 11.6006 40.4508 11.8566C40.6748 12.1126 40.7908 12.4526 40.7988 12.8766C40.7988 13.2526 40.6948 13.5886 40.4868 13.8846C40.2788 14.1806 39.9828 14.4126 39.5988 14.5806C39.2228 14.7486 38.7788 14.8326 38.2668 14.8326ZM43.873 9.22861V12.8886C43.873 13.1366 43.929 13.3166 44.041 13.4286C44.161 13.5326 44.361 13.5846 44.641 13.5846H45.481V14.7246H44.401C43.785 14.7246 43.313 14.5806 42.985 14.2926C42.657 14.0046 42.493 13.5366 42.493 12.8886V9.22861H41.713V8.11261H42.493V6.46861H43.873V8.11261H45.481V9.22861H43.873ZM49.1418 14.8326C48.6218 14.8326 48.1538 14.7406 47.7378 14.5566C47.3298 14.3646 47.0058 14.1086 46.7658 13.7886C46.5258 13.4606 46.3978 13.0966 46.3818 12.6966H47.7978C47.8218 12.9766 47.9538 13.2126 48.1938 13.4046C48.4418 13.5886 48.7498 13.6806 49.1178 13.6806C49.5018 13.6806 49.7978 13.6086 50.0058 13.4646C50.2218 13.3126 50.3298 13.1206 50.3298 12.8886C50.3298 12.6406 50.2098 12.4566 49.9698 12.3366C49.7378 12.2166 49.3658 12.0846 48.8538 11.9406C48.3578 11.8046 47.9538 11.6726 47.6418 11.5446C47.3298 11.4166 47.0578 11.2206 46.8258 10.9566C46.6018 10.6926 46.4898 10.3446 46.4898 9.91261C46.4898 9.56061 46.5938 9.24061 46.8018 8.95261C47.0098 8.65661 47.3058 8.42461 47.6898 8.25661C48.0818 8.08861 48.5298 8.00461 49.0338 8.00461C49.7858 8.00461 50.3898 8.19661 50.8458 8.58061C51.3098 8.95661 51.5578 9.47261 51.5898 10.1286H50.2218C50.1978 9.83261 50.0778 9.59661 49.8618 9.42061C49.6458 9.24461 49.3538 9.15661 48.9858 9.15661C48.6258 9.15661 48.3498 9.22461 48.1578 9.36061C47.9658 9.49661 47.8698 9.67661 47.8698 9.90061C47.8698 10.0766 47.9338 10.2246 48.0618 10.3446C48.1898 10.4646 48.3458 10.5606 48.5298 10.6326C48.7138 10.6966 48.9858 10.7806 49.3458 10.8846C49.8258 11.0126 50.2178 11.1446 50.5218 11.2806C50.8338 11.4086 51.1018 11.6006 51.3258 11.8566C51.5498 12.1126 51.6658 12.4526 51.6738 12.8766C51.6738 13.2526 51.5698 13.5886 51.3618 13.8846C51.1538 14.1806 50.8578 14.4126 50.4738 14.5806C50.0978 14.7486 49.6538 14.8326 49.1418 14.8326ZM59.212 11.2566C59.212 11.5046 59.196 11.7286 59.164 11.9286H54.112C54.152 12.4566 54.348 12.8806 54.7 13.2006C55.052 13.5206 55.484 13.6806 55.996 13.6806C56.732 13.6806 57.252 13.3726 57.556 12.7566H59.032C58.832 13.3646 58.468 13.8646 57.94 14.2566C57.42 14.6406 56.772 14.8326 55.996 14.8326C55.364 14.8326 54.796 14.6926 54.292 14.4126C53.796 14.1246 53.404 13.7246 53.116 13.2126C52.836 12.6926 52.696 12.0926 52.696 11.4126C52.696 10.7326 52.832 10.1366 53.104 9.62461C53.384 9.10461 53.772 8.70461 54.268 8.42461C54.772 8.14461 55.348 8.00461 55.996 8.00461C56.62 8.00461 57.176 8.14061 57.664 8.41261C58.152 8.68461 58.532 9.06861 58.804 9.56461C59.076 10.0526 59.212 10.6166 59.212 11.2566ZM57.784 10.8246C57.776 10.3206 57.596 9.91661 57.244 9.61261C56.892 9.30861 56.456 9.15661 55.936 9.15661C55.464 9.15661 55.06 9.30861 54.724 9.61261C54.388 9.90861 54.188 10.3126 54.124 10.8246H57.784ZM61.9262 5.84461V14.7246H60.5582V5.84461H61.9262ZM65.0903 5.84461V14.7246H63.7223V5.84461H65.0903ZM72.9463 11.2566C72.9463 11.5046 72.9303 11.7286 72.8983 11.9286H67.8463C67.8863 12.4566 68.0823 12.8806 68.4343 13.2006C68.7863 13.5206 69.2183 13.6806 69.7303 13.6806C70.4663 13.6806 70.9863 13.3726 71.2903 12.7566H72.7663C72.5663 13.3646 72.2023 13.8646 71.6743 14.2566C71.1543 14.6406 70.5063 14.8326 69.7303 14.8326C69.0983 14.8326 68.5303 14.6926 68.0263 14.4126C67.5303 14.1246 67.1383 13.7246 66.8503 13.2126C66.5703 12.6926 66.4303 12.0926 66.4303 11.4126C66.4303 10.7326 66.5663 10.1366 66.8383 9.62461C67.1183 9.10461 67.5063 8.70461 68.0023 8.42461C68.5063 8.14461 69.0823 8.00461 69.7303 8.00461C70.3543 8.00461 70.9103 8.14061 71.3983 8.41261C71.8863 8.68461 72.2663 9.06861 72.5383 9.56461C72.8103 10.0526 72.9463 10.6166 72.9463 11.2566ZM71.5183 10.8246C71.5103 10.3206 71.3303 9.91661 70.9783 9.61261C70.6263 9.30861 70.1903 9.15661 69.6703 9.15661C69.1983 9.15661 68.7943 9.30861 68.4583 9.61261C68.1223 9.90861 67.9223 10.3126 67.8583 10.8246H71.5183ZM75.6606 9.07261C75.8606 8.73661 76.1246 8.47661 76.4526 8.29261C76.7886 8.10061 77.1846 8.00461 77.6406 8.00461V9.42061H77.2926C76.7566 9.42061 76.3486 9.55661 76.0686 9.82861C75.7966 10.1006 75.6606 10.5726 75.6606 11.2446V14.7246H74.2926V8.11261H75.6606V9.07261Z" fill="#FF850A"/>
</svg>
