<svg width="14" height="13" viewBox="0 0 14 13" fill="none" xmlns="http://www.w3.org/2000/svg">
<path d="M9.32469 3.83851C9.2164 3.83851 9.12268 3.79877 9.04354 3.71928C8.9644 3.63978 8.92483 3.54565 8.92483 3.43687C8.92483 3.22349 8.9644 3.01849 9.04354 2.82185C9.12268 2.62521 9.23931 2.45158 9.39342 2.30096L9.887 1.79891C10.0453 1.63992 10.1244 1.44956 10.1244 1.22782C10.1244 1.11904 10.164 1.0249 10.2431 0.94541C10.3223 0.865918 10.416 0.826172 10.5243 0.826172C10.6326 0.826172 10.7263 0.865918 10.8054 0.94541C10.8846 1.0249 10.9241 1.11904 10.9241 1.22782C10.9241 1.44119 10.8846 1.6462 10.8054 1.84284C10.7263 2.03948 10.6097 2.2131 10.4555 2.36372L9.96197 2.86578C9.80369 3.02476 9.72455 3.21513 9.72455 3.43687C9.72455 3.54565 9.68499 3.63978 9.60585 3.71928C9.52671 3.79877 9.43299 3.83851 9.32469 3.83851ZM6.92553 3.83851C6.81724 3.83851 6.72352 3.79877 6.64438 3.71928C6.56524 3.63978 6.52567 3.54565 6.52567 3.43687C6.52567 3.22349 6.56524 3.01849 6.64438 2.82185C6.72352 2.62521 6.84014 2.45158 6.99426 2.30096L7.48784 1.79891C7.64611 1.63992 7.72525 1.44956 7.72525 1.22782C7.72525 1.11904 7.76482 1.0249 7.84396 0.94541C7.9231 0.865918 8.01682 0.826172 8.12511 0.826172C8.23341 0.826172 8.32713 0.865918 8.40626 0.94541C8.4854 1.0249 8.52497 1.11904 8.52497 1.22782C8.52497 1.44119 8.4854 1.6462 8.40626 1.84284C8.32713 2.03948 8.2105 2.2131 8.05639 2.36372L7.56281 2.86578C7.40453 3.02476 7.32539 3.21513 7.32539 3.43687C7.32539 3.54565 7.28582 3.63978 7.20668 3.71928C7.12754 3.79877 7.03383 3.83851 6.92553 3.83851ZM12.1237 4.94304C12.2903 4.94304 12.4465 4.97442 12.5923 5.03717C12.7381 5.09993 12.8651 5.1857 12.9734 5.29448C13.0817 5.40326 13.1671 5.53086 13.2296 5.6773C13.2921 5.82373 13.3233 5.98062 13.3233 6.14798V8.55785C13.3233 8.7252 13.2921 8.88209 13.2296 9.02853C13.1671 9.17496 13.0817 9.30257 12.9734 9.41135C12.8651 9.52013 12.7381 9.60589 12.5923 9.66865C12.4465 9.73141 12.2903 9.76279 12.1237 9.76279H11.7676C11.7593 9.79207 11.753 9.81927 11.7488 9.84437C11.7447 9.86947 11.7364 9.89458 11.7239 9.91968V10.1644C11.7239 10.4406 11.6718 10.7 11.5677 10.9426C11.4635 11.1853 11.3198 11.3987 11.1366 11.5827C10.9533 11.7668 10.7409 11.9112 10.4993 12.0158C10.2577 12.1204 9.99946 12.1727 9.72455 12.1727H7.32539C7.00051 12.1727 6.70061 12.0994 6.42571 11.953C6.1508 11.8066 5.92172 11.612 5.73845 11.3694H2.61454C2.33963 11.3694 2.08139 11.3171 1.83981 11.2125C1.59822 11.1079 1.3858 10.9656 1.20253 10.7857C1.01926 10.6058 0.87556 10.3924 0.77143 10.1456C0.6673 9.89876 0.615234 9.63727 0.615234 9.36114V8.95949H2.21468C2.21468 8.62897 2.27715 8.31728 2.40211 8.02441C2.52707 7.73155 2.69992 7.47633 2.92068 7.25878C3.14144 7.04122 3.39551 6.86759 3.68291 6.73789C3.97031 6.60819 4.28062 6.54544 4.61384 6.54962C4.73879 6.54962 4.85959 6.56008 4.97621 6.581C5.09284 6.60192 5.20946 6.63121 5.32609 6.66886V4.13975H11.7239V4.94304H12.1237ZM4.61384 7.35291C4.39308 7.35291 4.1869 7.39475 3.9953 7.47843C3.8037 7.5621 3.63293 7.67716 3.48298 7.82359C3.33304 7.97002 3.21849 8.13947 3.13935 8.33192C3.06021 8.52438 3.01856 8.73357 3.0144 8.95949H5.32609V7.52863C5.21779 7.47424 5.10533 7.4324 4.98871 7.40312C4.87208 7.37383 4.74713 7.3571 4.61384 7.35291ZM2.61454 10.5661H5.36982C5.34067 10.4447 5.32609 10.3109 5.32609 10.1644V9.76279H1.48368C1.52533 9.87993 1.58365 9.98662 1.65862 10.0828C1.73359 10.1791 1.81898 10.2648 1.91478 10.3402C2.01058 10.4155 2.11888 10.4698 2.23967 10.5033C2.36046 10.5368 2.48541 10.5577 2.61454 10.5661ZM5.50728 10.9865V10.9928L5.51352 11.0054V10.9991L5.50728 10.9865ZM10.9241 10.1644V4.94304H6.12581V10.1644C6.12581 10.3318 6.15705 10.4887 6.21953 10.6351C6.28201 10.7815 6.36739 10.9091 6.47569 11.0179C6.58398 11.1267 6.71102 11.2125 6.85681 11.2752C7.00259 11.338 7.15878 11.3694 7.32539 11.3694H9.72455C9.89116 11.3694 10.0474 11.338 10.1931 11.2752C10.3389 11.2125 10.466 11.1267 10.5743 11.0179C10.6826 10.9091 10.7679 10.7815 10.8304 10.6351C10.8929 10.4887 10.9241 10.3318 10.9241 10.1644ZM12.5236 8.55785V6.14798C12.5236 6.0392 12.484 5.94506 12.4049 5.86557C12.3257 5.78608 12.232 5.74633 12.1237 5.74633H11.7239V8.95949H12.1237C12.232 8.95949 12.3257 8.91975 12.4049 8.84026C12.484 8.76076 12.5236 8.66663 12.5236 8.55785Z" fill="#8F8B8B"/>
</svg>
