<svg width="21" height="20" viewBox="0 0 21 20" fill="none" xmlns="http://www.w3.org/2000/svg">
<path d="M3.94211 2.65789H3.18632L3.48194 3.35347L6.16615 9.66925L6.29553 9.97368H6.62632H15.2368C15.7497 9.97368 16.2 9.72457 16.4789 9.35263L19.634 5.14583C19.6345 5.14517 19.635 5.14452 19.6355 5.14386C19.8401 4.87547 19.9474 4.54775 19.9474 4.21053C19.9474 3.79874 19.7838 3.40383 19.4926 3.11265C19.2014 2.82148 18.8065 2.65789 18.3947 2.65789H3.94211ZM6.67895 10.0263H6.36815L6.23059 10.305L5.42006 11.9471L5.39394 12L5.38085 12.0576L5.27559 12.5208L5.26316 12.5755V12.6316C5.26316 13.0434 5.42674 13.4383 5.71791 13.7295C6.00909 14.0206 6.40401 14.1842 6.81579 14.1842H17.8947V14.2368H6.81579C6.39005 14.2368 5.98174 14.0677 5.6807 13.7667C5.37965 13.4656 5.21053 13.0573 5.21053 12.6316V12.6311C5.21029 12.3588 5.27934 12.0909 5.41118 11.8526L5.41723 11.8417L5.42272 11.8305L6.18061 10.2831L6.28101 10.0781L6.1919 9.86795L2.37085 0.857426L2.24159 0.552632H1.91053H1V0.5H2.27448L3.03983 2.30083L3.16922 2.60526H3.5H18.3947C18.8205 2.60526 19.2288 2.77439 19.5298 3.07543C19.8309 3.37648 20 3.78478 20 4.21053C20 4.61452 19.8655 4.94559 19.6404 5.21899L19.6329 5.22799L19.6259 5.23734L16.5628 9.33207L16.5626 9.33196L16.5547 9.34324C16.2649 9.75371 15.7825 10.0263 15.2368 10.0263H6.67895ZM16.2895 16.2895C16.7152 16.2895 17.1235 16.4586 17.4246 16.7596C17.7256 17.0607 17.8947 17.469 17.8947 17.8947C17.8947 18.3205 17.7256 18.7288 17.4246 19.0298C17.1235 19.3309 16.7152 19.5 16.2895 19.5C15.8637 19.5 15.4554 19.3309 15.1544 19.0298C14.8533 18.7288 14.6842 18.3205 14.6842 17.8947C14.6842 17.469 14.8533 17.0607 15.1544 16.7596C15.4554 16.4586 15.8637 16.2895 16.2895 16.2895ZM16.2895 16.3421C15.8777 16.3421 15.4828 16.5057 15.1916 16.7969C14.9004 17.088 14.7368 17.483 14.7368 17.8947C14.7368 18.3065 14.9004 18.7014 15.1916 18.9926C15.4828 19.2838 15.8777 19.4474 16.2895 19.4474C16.7013 19.4474 17.0962 19.2838 17.3874 18.9926C17.6785 18.7014 17.8421 18.3065 17.8421 17.8947C17.8421 17.483 17.6785 17.088 17.3874 16.7969C17.0962 16.5057 16.7013 16.3421 16.2895 16.3421ZM6.81579 16.2895C7.24153 16.2895 7.64984 16.4586 7.95088 16.7596C8.25193 17.0607 8.42105 17.469 8.42105 17.8947C8.42105 18.3205 8.25193 18.7288 7.95088 19.0298C7.64984 19.3309 7.24153 19.5 6.81579 19.5C6.39005 19.5 5.98174 19.3309 5.6807 19.0298C5.37965 18.7288 5.21053 18.3205 5.21053 17.8947C5.21053 17.469 5.37965 17.0607 5.6807 16.7596C5.98174 16.4586 6.39005 16.2895 6.81579 16.2895ZM6.81579 16.3421C6.40401 16.3421 6.00909 16.5057 5.71791 16.7969C5.42674 17.088 5.26316 17.483 5.26316 17.8947C5.26316 18.3065 5.42674 18.7014 5.71791 18.9926C6.00909 19.2838 6.40401 19.4474 6.81579 19.4474C7.22757 19.4474 7.62249 19.2838 7.91367 18.9926C8.20484 18.7014 8.36842 18.3065 8.36842 17.8947C8.36842 17.483 8.20484 17.088 7.91367 16.7969C7.62249 16.5057 7.22757 16.3421 6.81579 16.3421Z" stroke="#878789"/>
</svg>
