<svg width="15" height="14" viewBox="0 0 15 14" fill="none" xmlns="http://www.w3.org/2000/svg">
<path d="M10 1.91602V2.41602H10.5H12.75C13.0152 2.41602 13.2696 2.52137 13.4571 2.70891C13.6446 2.89644 13.75 3.1508 13.75 3.41602V4.91602V4.91625C13.7501 5.13892 13.6759 5.35524 13.5391 5.53095C13.4024 5.70666 13.2109 5.8317 12.995 5.88625L12.4272 6.02975L12.658 6.56804L14.2645 10.315L14.2703 10.3287L14.277 10.342C14.4393 10.6659 14.5 10.9325 14.5 11.291V11.2912C14.5002 11.7739 14.3361 12.2422 14.0347 12.6192C13.7333 12.9961 13.3126 13.2593 12.8417 13.3653C12.3708 13.4713 11.8779 13.4138 11.4441 13.2024C11.0102 12.991 10.6612 12.6381 10.4546 12.2019L10.3191 11.916H10.0027H5.74725H5.43073L5.29532 12.2021C5.09994 12.6149 4.77678 12.9537 4.37372 13.1685C3.97067 13.3832 3.50916 13.4623 3.05759 13.3942C2.60602 13.3261 2.18841 13.1143 1.86664 12.7902C1.54488 12.4661 1.33607 12.047 1.27118 11.595L1.20959 11.166H0.77625H0.75C0.683696 11.166 0.620108 11.1397 0.573224 11.0928C0.52634 11.0459 0.5 10.9823 0.5 10.916V4.91602C0.5 4.6508 0.605357 4.39645 0.792893 4.20891C0.98043 4.02137 1.23478 3.91602 1.5 3.91602H4.5C4.76522 3.91602 5.01957 4.02137 5.20711 4.20891C5.39464 4.39645 5.5 4.6508 5.5 4.91602V6.41602C5.5 6.94645 5.71071 7.45516 6.08579 7.83023C6.46086 8.2053 6.96957 8.41602 7.5 8.41602C8.03043 8.41602 8.53914 8.2053 8.91421 7.83023C9.28929 7.45516 9.5 6.94645 9.5 6.41602V1.91602V1.41602H9H7.5C7.4337 1.41602 7.37011 1.38968 7.32322 1.34279C7.27634 1.29591 7.25 1.23232 7.25 1.16602C7.25 1.09971 7.27634 1.03612 7.32322 0.989239C7.37011 0.942355 7.4337 0.916016 7.5 0.916016H9C9.26522 0.916016 9.51957 1.02137 9.70711 1.20891C9.89464 1.39645 10 1.6508 10 1.91602ZM11.9645 6.219L11.8347 5.91602H11.505H10.5H9.99981L10 6.41621C10.0002 6.96673 9.81871 7.50192 9.48366 7.93873C9.1486 8.37554 8.67874 8.68955 8.14697 8.83202C7.61521 8.97449 7.0513 8.93745 6.54274 8.72665C6.03418 8.51586 5.60942 8.14309 5.33437 7.66621L5.19007 7.41602H4.90125H1.5H1V7.91602V9.45352V10.6788L1.85725 9.80334C2.13454 9.52016 2.4855 9.32017 2.87048 9.22597C3.25546 9.13178 3.65911 9.14712 4.03583 9.27027C4.41255 9.39342 4.74732 9.61947 5.00231 9.92289C5.25731 10.2263 5.42237 10.595 5.47885 10.9873L5.54058 11.416H5.97375H9.77625H10.2099L10.2712 10.9868C10.4223 9.9299 11.3845 9.12962 12.4527 9.16721L13.2404 9.19492L12.9298 8.4705L11.9645 6.219ZM11.226 12.4401L11.5795 12.0865L11.226 12.4401C11.4532 12.6673 11.7428 12.8221 12.058 12.8848C12.3732 12.9475 12.6999 12.9153 12.9969 12.7923C13.2938 12.6693 13.5476 12.461 13.7261 12.1938C13.9047 11.9266 14 11.6124 14 11.291C14 10.4075 13.2633 9.66602 12.375 9.66602C12.0536 9.66602 11.7394 9.76132 11.4722 9.93988C11.205 10.1184 10.9967 10.3722 10.8737 10.6692C10.7507 10.9661 10.7185 11.2928 10.7812 11.608C10.8439 11.9233 10.9987 12.2128 11.226 12.4401ZM5 4.91602V4.41602H4.5H1.5H1V4.91602V6.41602V6.91602H1.5H4.5H5V6.41602V4.91602ZM13.25 3.41602V2.91602H12.75H10.5H10V3.41602V4.91602V5.41602H10.5H12.75H13.25V4.91602V3.41602ZM3.375 9.66602C2.94402 9.66602 2.5307 9.83722 2.22595 10.142C1.9212 10.4467 1.75 10.86 1.75 11.291C1.75 11.722 1.9212 12.1353 2.22595 12.4401C2.5307 12.7448 2.94402 12.916 3.375 12.916C3.80598 12.916 4.2193 12.7448 4.52405 12.4401C4.82879 12.1353 5 11.722 5 11.291C5 10.86 4.82879 10.4467 4.52405 10.142C4.2193 9.83722 3.80598 9.66602 3.375 9.66602Z" stroke="#F86900"/>
</svg>
