<svg width="14" height="13" viewBox="0 0 14 13" fill="none" xmlns="http://www.w3.org/2000/svg">
<line x1="0.458984" y1="9.40884" x2="13.167" y2="9.40884" stroke="#8F8B8B" stroke-width="0.990923"/>
<line x1="6.77016" y1="2.18945" x2="6.77016" y2="0.374015" stroke="#8F8B8B" stroke-width="0.990923"/>
<mask id="path-3-inside-1_344_826" fill="white">
<path d="M11.8045 7.40884C11.8045 6.72342 11.6812 6.04471 11.4417 5.41147C11.2022 4.77822 10.8512 4.20284 10.4087 3.71818C9.96618 3.23351 9.44083 2.84905 8.86265 2.58676C8.28447 2.32446 7.66478 2.18945 7.03896 2.18945C6.41314 2.18945 5.79345 2.32446 5.21527 2.58676C4.63709 2.84905 4.11175 3.23351 3.66923 3.71818C3.22671 4.20284 2.87568 4.77822 2.63619 5.41147C2.3967 6.04471 2.27344 6.72342 2.27344 7.40884L7.03896 7.40884H11.8045Z"/>
</mask>
<path d="M11.8045 7.40884C11.8045 6.72342 11.6812 6.04471 11.4417 5.41147C11.2022 4.77822 10.8512 4.20284 10.4087 3.71818C9.96618 3.23351 9.44083 2.84905 8.86265 2.58676C8.28447 2.32446 7.66478 2.18945 7.03896 2.18945C6.41314 2.18945 5.79345 2.32446 5.21527 2.58676C4.63709 2.84905 4.11175 3.23351 3.66923 3.71818C3.22671 4.20284 2.87568 4.77822 2.63619 5.41147C2.3967 6.04471 2.27344 6.72342 2.27344 7.40884L7.03896 7.40884H11.8045Z" stroke="#8F8B8B" stroke-width="1.98185" mask="url(#path-3-inside-1_344_826)"/>
</svg>
