<svg width="12" height="11" viewBox="0 0 12 11" fill="none" xmlns="http://www.w3.org/2000/svg">
<path d="M3.16261 9.40489V10.1347C3.16261 10.2791 3.21999 10.4177 3.32213 10.5198C3.42427 10.6219 3.5628 10.6793 3.70724 10.6793H8.06429C8.20874 10.6793 8.34727 10.6219 8.4494 10.5198C8.55154 10.4177 8.60892 10.2791 8.60892 10.1347V9.40489C9.43685 8.92688 10.1244 8.23938 10.6024 7.41146C11.0804 6.58354 11.3321 5.64438 11.3321 4.68838C11.3321 4.54393 11.2747 4.40541 11.1726 4.30327C11.0704 4.20113 10.9319 4.14375 10.7874 4.14375C10.7775 3.81029 10.6821 3.48496 10.5105 3.19889C10.3388 2.91282 10.0967 2.67558 9.80711 2.50985C9.73768 2.03545 9.49959 1.60196 9.13647 1.28886C8.77336 0.975763 8.30956 0.804035 7.8301 0.805158C7.6463 0.805689 7.4633 0.829478 7.28547 0.87596C6.91059 0.518059 6.41223 0.318359 5.89394 0.318359C5.37564 0.318359 4.87728 0.518059 4.5024 0.87596C4.32457 0.829478 4.14158 0.805689 3.95777 0.805158C3.47644 0.801402 3.01001 0.97194 2.64462 1.28528C2.27923 1.59861 2.03956 2.03358 1.96987 2.50985C1.67931 2.6749 1.43606 2.91185 1.26343 3.19796C1.09081 3.48408 0.994617 3.80976 0.984084 4.14375C0.839639 4.14375 0.70111 4.20113 0.598972 4.30327C0.496834 4.40541 0.439453 4.54393 0.439453 4.68838C0.439477 5.64438 0.691143 6.58354 1.16916 7.41146C1.64717 8.23938 2.33469 8.92688 3.16261 9.40489ZM2.67789 3.41394L3.12993 3.27234L3.04279 2.78217C3.04421 2.66487 3.06873 2.549 3.11493 2.44118C3.16114 2.33335 3.22813 2.23569 3.31208 2.15376C3.39604 2.07183 3.49531 2.00723 3.60423 1.96367C3.71315 1.92011 3.82958 1.89843 3.94688 1.89987C4.10412 1.8994 4.25916 1.93676 4.39892 2.00879L4.84007 2.25388L5.11239 1.83451C5.19755 1.70758 5.31265 1.60356 5.44753 1.53163C5.5824 1.4597 5.73291 1.42208 5.88577 1.42208C6.03862 1.42208 6.18913 1.4597 6.32401 1.53163C6.45888 1.60356 6.57398 1.70758 6.65914 1.83451L6.93146 2.25388L7.37261 2.00879C7.51238 1.93676 7.66742 1.8994 7.82465 1.89987C8.06022 1.8969 8.28754 1.98657 8.45765 2.14955C8.62776 2.31253 8.72707 2.5358 8.73419 2.77128L8.64705 3.23421L9.09365 3.38671C9.25839 3.43827 9.40397 3.53789 9.51169 3.67278C9.61941 3.80767 9.68435 3.97168 9.69819 4.14375H2.07335C2.08718 3.97168 2.15213 3.80767 2.25985 3.67278C2.36757 3.53789 2.51314 3.43827 2.67789 3.38671V3.41394ZM10.2101 5.23301C10.1193 5.94605 9.85341 6.62554 9.43624 7.21091C9.01907 7.79628 8.46356 8.26934 7.81921 8.58794C7.72856 8.63361 7.65248 8.70371 7.59956 8.79032C7.54663 8.87693 7.51895 8.97661 7.51966 9.07811V9.59006H4.25187V9.07811C4.25258 8.97661 4.22491 8.87693 4.17198 8.79032C4.11905 8.70371 4.04297 8.63361 3.95233 8.58794C3.30798 8.26934 2.75246 7.79628 2.33529 7.21091C1.91812 6.62554 1.65226 5.94605 1.56139 5.23301H10.2101Z" fill="#8F8B8B"/>
</svg>
