<svg width="22" height="22" viewBox="0 0 22 22" fill="none" xmlns="http://www.w3.org/2000/svg">
<path d="M16.9305 10.002C17.5421 15.377 19.9474 17.002 19.9474 17.002H1C1 17.002 4.15789 14.869 4.15789 7.40195C4.15789 5.70495 4.82316 4.07695 6.00737 2.87695C7.19158 1.67695 8.8 1.00195 10.4737 1.00195C10.8295 1.00195 11.1804 1.03195 11.5263 1.09195M12.2947 20.002C12.1097 20.305 11.844 20.5566 11.5244 20.7315C11.2049 20.9064 10.8425 20.9984 10.4737 20.9984C10.1049 20.9984 9.74252 20.9064 9.42292 20.7315C9.10332 20.5566 8.8377 20.305 8.65263 20.002M17.8421 7.00195C18.6796 7.00195 19.4829 6.68588 20.0751 6.12327C20.6673 5.56066 21 4.7976 21 4.00195C21 3.2063 20.6673 2.44324 20.0751 1.88063C19.4829 1.31802 18.6796 1.00195 17.8421 1.00195C17.0046 1.00195 16.2014 1.31802 15.6091 1.88063C15.0169 2.44324 14.6842 3.2063 14.6842 4.00195C14.6842 4.7976 15.0169 5.56066 15.6091 6.12327C16.2014 6.68588 17.0046 7.00195 17.8421 7.00195Z" stroke="#878789" stroke-linecap="round" stroke-linejoin="round"/>
</svg>
