<svg width="12" height="17" viewBox="0 0 12 17" fill="none" xmlns="http://www.w3.org/2000/svg">
<path fill-rule="evenodd" clip-rule="evenodd" d="M8.6423 0.912109L8.18334 2.6721L8.20913 2.289L5.90065 3.39317V1.91652L3.24549 2.729V4.1021L2.57411 1.59752L0.449219 3.58396L1.37473 7.03682C1.41873 7.05958 1.45881 7.0884 1.49497 7.1233C1.80955 7.42776 2.113 7.70453 2.40532 7.95361L1.30001 3.8271L2.16863 3.01538L3.24587 7.03113V8.60943C3.50456 8.79251 3.75743 8.95056 4.00449 9.08357V3.29038L5.14241 2.94255V9.53002C5.42993 9.59753 5.7158 9.62801 6.00003 9.62143L6.38162 4.00386L7.36403 3.53352L6.96158 9.45984C7.28687 9.35581 7.60047 9.21827 7.89734 9.04943L8.77999 5.75437L9.85723 5.4312L9.11378 8.20471C9.47083 7.91128 9.81555 7.60314 10.147 7.28109L10.9614 4.24131L10.2912 4.41276L11.3418 0.912109H8.6423ZM10.3219 1.67073L9.43354 4.63237L8.38589 4.90017L9.22795 1.67073H10.3219Z" fill="#8F8B8B"/>
<path fill-rule="evenodd" clip-rule="evenodd" d="M10.2952 8.18398C8.7962 9.56088 7.4121 10.3847 5.91686 10.3825C4.42086 10.3802 3.02463 9.55026 1.50246 8.17184L2.39687 15.3268H9.40233L10.2952 8.18398ZM1.14629 6.98195C0.850424 6.98195 0.621701 7.2414 0.658114 7.53499L1.64432 15.4208C1.66723 15.6042 1.7563 15.7729 1.89479 15.8953C2.03329 16.0176 2.21168 16.0852 2.39649 16.0854H9.40195C9.58682 16.0853 9.76531 16.0178 9.90388 15.8954C10.0425 15.773 10.1316 15.6043 10.1545 15.4208L11.1407 7.53309C11.1537 7.43127 11.1345 7.32794 11.0856 7.23765C11.0368 7.14735 10.9609 7.07466 10.8686 7.02979C10.7763 6.98493 10.6722 6.97017 10.571 6.98758C10.4699 7.00499 10.3767 7.0537 10.3047 7.12685C6.91368 10.4633 4.93407 10.4496 1.49335 7.12419C1.40034 7.03403 1.2762 6.98309 1.14666 6.98195" fill="#8F8B8B"/>
</svg>
