<svg width="12" height="11" viewBox="0 0 12 11" fill="none" xmlns="http://www.w3.org/2000/svg">
<path fill-rule="evenodd" clip-rule="evenodd" d="M10.2952 2.18594C8.7962 3.56283 7.4121 4.38669 5.91686 4.38441C4.42086 4.38214 3.02463 3.55221 1.50246 2.1738L2.39687 9.32871H9.40233L10.2952 2.18594ZM1.14629 0.983905C0.850424 0.983905 0.621701 1.24335 0.658114 1.53694L1.64432 9.42278C1.66723 9.60616 1.7563 9.77487 1.89479 9.89723C2.03329 10.0196 2.21168 10.0872 2.39649 10.0873H9.40195C9.58682 10.0873 9.76531 10.0197 9.90388 9.89735C10.0425 9.77498 10.1316 9.60622 10.1545 9.42278L11.1407 1.53504C11.1537 1.43322 11.1345 1.32989 11.0856 1.2396C11.0368 1.14931 10.9609 1.07661 10.8686 1.03175C10.7763 0.986884 10.6722 0.972118 10.571 0.98953C10.4699 1.00694 10.3767 1.05565 10.3047 1.1288C6.91368 4.46521 4.93407 4.45155 1.49335 1.12615C1.40034 1.03598 1.2762 0.985047 1.14666 0.983905" fill="#8F8B8B"/>
</svg>
