<svg width="24" height="24" viewBox="0 0 24 24" fill="none" xmlns="http://www.w3.org/2000/svg">
<mask id="mask0_3313_1451" style="mask-type:luminance" maskUnits="userSpaceOnUse" x="0" y="0" width="24" height="24">
<path d="M23.75 23.75V0.25H0.25V23.75H23.75Z" fill="white" stroke="white" stroke-width="0.5"/>
</mask>
<g mask="url(#mask0_3313_1451)">
<path d="M7.92906 7.05078C7.76781 6.59984 7.67969 6.11328 7.67969 5.60656C7.67969 3.24031 9.59828 1.32219 11.9645 1.32219C14.3308 1.32219 16.2494 3.24031 16.2494 5.60656C16.2494 6.11328 16.1612 6.59938 15.9995 7.05078" stroke="#8F8B8B" stroke-width="0.5" stroke-miterlimit="10" stroke-linecap="round" stroke-linejoin="round"/>
<path d="M18.9766 9.12781C19.342 9.75861 19.5512 10.4913 19.5512 11.2729C19.5512 11.7552 19.4716 12.2192 19.3244 12.6523" stroke="#8F8B8B" stroke-width="0.5" stroke-miterlimit="10" stroke-linecap="round" stroke-linejoin="round"/>
<path d="M11.9648 8.54102C12.7509 7.59227 13.9383 6.98805 15.2663 6.98805C16.2558 6.98805 17.1671 7.32348 17.8925 7.88697" stroke="#8F8B8B" stroke-width="0.5" stroke-miterlimit="10" stroke-linecap="round" stroke-linejoin="round"/>
<path d="M4.60625 12.6523C4.45533 12.2081 4.37852 11.742 4.37891 11.2728C4.37891 8.90609 6.2975 6.98797 8.66375 6.98797C11.03 6.98797 12.9486 8.90609 12.9486 11.2728C12.9486 11.7552 12.8689 12.2192 12.7217 12.6523" stroke="#8F8B8B" stroke-width="0.5" stroke-miterlimit="10" stroke-linecap="round" stroke-linejoin="round"/>
<path d="M15.2656 14.1386C16.0512 13.1899 17.2386 12.5852 18.567 12.5852C20.9333 12.5852 22.8519 14.5033 22.8519 16.8696C22.8519 17.3439 22.775 17.8 22.6325 18.2266" stroke="#8F8B8B" stroke-width="0.5" stroke-miterlimit="10" stroke-linecap="round" stroke-linejoin="round"/>
<path d="M1.2975 18.2266C1.155 17.8 1.07812 17.3439 1.07812 16.8696C1.07812 14.5033 2.99672 12.5852 5.36297 12.5852C6.69141 12.5852 7.87875 13.1899 8.66484 14.1386" stroke="#8F8B8B" stroke-width="0.5" stroke-miterlimit="10" stroke-linecap="round" stroke-linejoin="round"/>
<path d="M16.03 18.2266C16.1725 17.8 16.2494 17.3439 16.2494 16.8696C16.2494 14.5033 14.3308 12.5852 11.9645 12.5852C9.59828 12.5852 7.67969 14.5033 7.67969 16.8696C7.67969 17.3439 7.75656 17.8 7.89906 18.2266" stroke="#8F8B8B" stroke-width="0.5" stroke-miterlimit="10" stroke-linecap="round" stroke-linejoin="round"/>
<path d="M18.089 22.6777H5.91098C3.37818 22.6777 1.13615 21.0374 0.366039 18.6208C0.304024 18.4263 0.449008 18.2275 0.652961 18.2275H23.347C23.551 18.2275 23.696 18.4263 23.6339 18.6208C22.8638 21.0374 20.6218 22.6777 18.089 22.6777Z" stroke="#8F8B8B" stroke-width="0.5" stroke-miterlimit="10" stroke-linecap="round" stroke-linejoin="round"/>
<path d="M6.9348 19.9102H1.06445" stroke="#8F8B8B" stroke-width="0.5" stroke-miterlimit="10" stroke-linecap="round" stroke-linejoin="round"/>
<path d="M22.9351 19.9102H8.57422" stroke="#8F8B8B" stroke-width="0.5" stroke-miterlimit="10" stroke-linecap="round" stroke-linejoin="round"/>
<path d="M12.75 4.18164C12.75 3.76741 12.4142 2.72852 12 2.72852C11.5858 2.72852 11.25 3.76741 11.25 4.18164C11.25 4.59587 11.5858 4.93164 12 4.93164C12.4142 4.93164 12.75 4.59587 12.75 4.18164Z" stroke="#8F8B8B" stroke-width="0.5" stroke-miterlimit="10" stroke-linecap="round" stroke-linejoin="round"/>
<path d="M9.41406 9.84766C9.41406 9.43342 9.07825 8.39453 8.66406 8.39453C8.24983 8.39453 7.91406 9.43342 7.91406 9.84766C7.91406 10.2618 8.24983 10.5977 8.66406 10.5977C9.07825 10.5977 9.41406 10.2618 9.41406 9.84766Z" stroke="#8F8B8B" stroke-width="0.5" stroke-miterlimit="10" stroke-linecap="round" stroke-linejoin="round"/>
<path d="M16.0156 9.84766C16.0156 9.43342 15.6798 8.39453 15.2656 8.39453C14.8514 8.39453 14.5156 9.43342 14.5156 9.84766C14.5156 10.2618 14.8514 10.5977 15.2656 10.5977C15.6798 10.5977 16.0156 10.2618 16.0156 9.84766Z" stroke="#8F8B8B" stroke-width="0.5" stroke-miterlimit="10" stroke-linecap="round" stroke-linejoin="round"/>
<path d="M12.7148 15.4453C12.7148 15.0311 12.379 13.9922 11.9648 13.9922C11.5506 13.9922 11.2148 15.0311 11.2148 15.4453C11.2148 15.8595 11.5506 16.1953 11.9648 16.1953C12.379 16.1953 12.7148 15.8595 12.7148 15.4453Z" stroke="#8F8B8B" stroke-width="0.5" stroke-miterlimit="10" stroke-linecap="round" stroke-linejoin="round"/>
<path d="M19.3184 15.4453C19.3184 15.0311 18.9825 13.9922 18.5684 13.9922C18.1541 13.9922 17.8184 15.0311 17.8184 15.4453C17.8184 15.8595 18.1541 16.1953 18.5684 16.1953C18.9825 16.1953 19.3184 15.8595 19.3184 15.4453Z" stroke="#8F8B8B" stroke-width="0.5" stroke-miterlimit="10" stroke-linecap="round" stroke-linejoin="round"/>
<path d="M6.11133 15.4453C6.11133 15.0311 5.77556 13.9922 5.36133 13.9922C4.94714 13.9922 4.61133 15.0311 4.61133 15.4453C4.61133 15.8595 4.94714 16.1953 5.36133 16.1953C5.77556 16.1953 6.11133 15.8595 6.11133 15.4453Z" stroke="#8F8B8B" stroke-width="0.5" stroke-miterlimit="10" stroke-linecap="round" stroke-linejoin="round"/>
</g>
</svg>
