<svg width="24" height="20" viewBox="0 0 24 20" fill="none" xmlns="http://www.w3.org/2000/svg">
<path d="M2.82947 9.75178C2.33003 9.28752 1.93432 8.73488 1.66541 8.12607C1.3965 7.51725 1.25976 6.86445 1.26316 6.20569C1.26316 4.87334 1.82876 3.59556 2.83553 2.65344C3.84231 1.71133 5.20779 1.18205 6.63158 1.18205C8.62737 1.18205 10.3705 2.1986 11.2926 3.7116H12.7074C13.1761 2.94217 13.8544 2.30272 14.6732 1.85838C15.492 1.41404 16.4219 1.18068 17.3684 1.18205C18.7922 1.18205 20.1577 1.71133 21.1645 2.65344C22.1712 3.59556 22.7368 4.87334 22.7368 6.20569C22.7368 7.58867 22.1053 8.86526 21.1705 9.75178L12 18.3215L2.82947 9.75178ZM22.0547 10.591C23.2547 9.45628 24 7.91963 24 6.20569C24 4.55984 23.3013 2.98141 22.0577 1.81762C20.814 0.653831 19.1272 2.13381e-05 17.3684 2.13381e-05C15.1579 2.13381e-05 13.2 1.00475 12 2.56503C11.3875 1.76893 10.581 1.12096 9.64734 0.674877C8.71371 0.22879 7.67987 -0.00255828 6.63158 2.13381e-05C4.87277 2.13381e-05 3.18601 0.653831 1.94234 1.81762C0.698682 2.98141 0 4.55984 0 6.20569C0 7.91963 0.745263 9.45628 1.94526 10.591L12 20L22.0547 10.591Z" fill="#878789"/>
</svg>
